<svg width="14" height="14" viewBox="0 0 14 14" fill="none" xmlns="http://www.w3.org/2000/svg">
<path d="M3.51121 13.3393C3.51121 13.1937 3.48321 13.1209 3.42721 13.1209L3.04081 13.3057C3.04081 13.2273 2.99601 13.1713 2.90641 13.1377L2.77201 13.1209C2.68241 13.1209 2.57041 13.1601 2.43601 13.2385C2.41361 13.1825 2.38561 13.1265 2.35201 13.0705C2.31841 13.0145 2.29041 12.9641 2.26801 12.9193C2.12241 12.6393 1.97681 12.3313 1.83121 11.9953C1.69681 11.6481 1.56801 11.3177 1.44481 11.0041C1.33281 10.6905 1.24321 10.4441 1.17601 10.2649C1.13121 10.1193 1.08081 9.90092 1.02481 9.60972C0.968812 9.31852 0.912812 8.94892 0.856812 8.50092C0.980012 8.57932 1.07521 8.61852 1.14241 8.61852C1.22081 8.61852 1.29361 8.50092 1.36081 8.26572C1.39441 8.31052 1.45601 8.33292 1.54561 8.33292C1.61281 8.33292 1.66321 8.31052 1.69681 8.26572L1.96561 7.86252L2.26801 7.96332H2.28481C2.30721 7.96332 2.32961 7.95212 2.35201 7.92972C2.37441 7.90732 2.40801 7.88492 2.45281 7.86252C2.54241 7.80652 2.60961 7.77852 2.65441 7.77852L2.70481 7.79532C2.98481 7.92972 3.16401 8.17612 3.24241 8.53452C3.44401 9.38572 3.64561 9.81132 3.84721 9.81132C4.04881 9.81132 4.28401 9.59852 4.55281 9.17292C4.68721 8.96012 4.82161 8.71372 4.95601 8.43372C5.10161 8.15372 5.24721 7.84012 5.39281 7.49292C5.41521 7.62732 5.43761 7.69452 5.46001 7.69452C5.51601 7.69452 5.61121 7.55452 5.74561 7.27452C5.89121 6.99452 6.12081 6.60812 6.43441 6.11532C6.61361 5.81292 6.83761 5.47132 7.10641 5.09052C7.38641 4.70972 7.68321 4.31772 7.99681 3.91452C8.31041 3.51132 8.61281 3.13052 8.90401 2.77212C9.20641 2.41372 9.47521 2.10572 9.71041 1.84812C9.94561 1.59052 10.1192 1.42252 10.2312 1.34412C10.6568 1.05292 10.9928 0.77292 11.2392 0.50412C11.228 0.582519 11.2112 0.655319 11.1888 0.72252C11.1776 0.77852 11.172 0.81772 11.172 0.840119C11.172 0.884919 11.1944 0.90732 11.2392 0.90732L11.7096 0.67212V0.73932C11.7096 0.82892 11.732 0.87372 11.7768 0.87372C11.8104 0.87372 11.8776 0.82332 11.9784 0.72252C12.0792 0.62172 12.1352 0.54892 12.1464 0.50412L12.1128 0.73932L12.684 0.40332L12.5496 0.70572C12.7288 0.58252 12.8576 0.52092 12.936 0.52092C12.9808 0.52092 13.0144 0.548919 13.0368 0.604919C13.0592 0.64972 13.0704 0.69452 13.0704 0.73932C13.0704 0.806519 13.0424 0.884919 12.9864 0.97452C12.9304 1.06412 12.8576 1.17052 12.768 1.29372C12.7008 1.38332 12.5888 1.51772 12.432 1.69692C12.2864 1.86492 12.0624 2.11692 11.76 2.45292C11.4576 2.77772 11.0544 3.23132 10.5504 3.81372C10.416 3.95932 10.2088 4.21692 9.92881 4.58652C9.64881 4.94492 9.32961 5.36492 8.97121 5.84652C8.62401 6.31692 8.27681 6.79292 7.92961 7.27452C7.58241 7.75612 7.27441 8.19292 7.00561 8.58492C6.73681 8.96572 6.54641 9.25132 6.43441 9.44172L5.39281 11.2057C5.16881 11.5865 4.98401 11.9001 4.83841 12.1465C4.69281 12.3817 4.58081 12.5441 4.50241 12.6337C4.33441 12.8353 4.14961 13.0145 3.94801 13.1713L3.79681 13.0873L3.66241 13.1713L3.51121 13.3393Z" fill="#00875A"/>
</svg>
