<svg width="12" height="13" viewBox="0 0 12 13" fill="none" xmlns="http://www.w3.org/2000/svg">
<path d="M1.48002 11.7724C1.28002 11.7724 1.13336 11.7039 1.04002 11.5671C0.946691 11.4302 0.900024 11.2559 0.900024 11.0444C0.900024 10.8702 1.02002 10.6213 1.26002 10.2977C1.51336 9.96172 1.84002 9.56972 2.24002 9.12172C2.65336 8.66128 3.10669 8.16972 3.60002 7.64705C4.09336 7.12439 4.59336 6.5955 5.10002 6.06039C4.48669 5.08972 4.02002 4.32439 3.70002 3.76439C3.38002 3.19194 3.22002 2.74394 3.22002 2.42039C3.22002 2.19639 3.30002 1.99105 3.46002 1.80439C3.62002 1.60528 3.78002 1.50572 3.94002 1.50572C4.12669 1.50572 4.30669 1.6115 4.48002 1.82305C4.66669 2.02216 4.89336 2.36439 5.16003 2.84972C5.42669 3.32261 5.78669 3.97594 6.24003 4.80972C6.97336 3.98839 7.58003 3.31639 8.06003 2.79372C8.55336 2.27105 8.94669 1.86661 9.24002 1.58039C9.54669 1.29416 9.78669 1.09505 9.96002 0.983053C10.1467 0.858609 10.3067 0.796387 10.44 0.796387C10.6 0.796387 10.7334 0.858609 10.84 0.983053C10.9467 1.09505 11 1.28172 11 1.54305C11 1.79194 10.8734 2.09683 10.62 2.45772C10.38 2.81861 10.06 3.21061 9.66003 3.63372C9.26003 4.05683 8.82669 4.49239 8.36002 4.94039C7.90669 5.37594 7.47336 5.79905 7.06003 6.20972C7.72669 7.27994 8.36669 8.21328 8.98003 9.00972C9.59336 9.79372 10.0867 10.4408 10.46 10.9511C10.8467 11.4613 11.04 11.8346 11.04 12.0711C11.04 12.2328 11 12.3573 10.92 12.4444C10.84 12.5191 10.6867 12.5564 10.46 12.5564C10.3 12.5564 10.1134 12.4942 9.90003 12.3697C9.68669 12.2453 9.41336 12.0026 9.08003 11.6417C8.76003 11.2808 8.34003 10.7582 7.82002 10.0737C7.31336 9.37683 6.68669 8.46839 5.94002 7.34839C5.47336 7.83372 5.00669 8.33772 4.54002 8.86039C4.08669 9.37061 3.65336 9.84972 3.24002 10.2977C2.84002 10.7333 2.48669 11.0879 2.18002 11.3617C1.87336 11.6355 1.64002 11.7724 1.48002 11.7724Z" fill="#DE350B"/>
</svg>
