<svg width="14" height="14" viewBox="0 0 14 14" fill="none" xmlns="http://www.w3.org/2000/svg">
<path d="M5.96152 9.77976C5.55148 9.77976 5.2301 9.69322 4.99738 9.52012C4.76466 9.33685 4.6483 9.05685 4.6483 8.68012C4.6483 8.34412 4.76466 8.02849 4.99738 7.73322C5.2301 7.42776 5.52932 7.1274 5.89503 6.83212C6.27182 6.53685 6.65969 6.23649 7.05864 5.93103C7.513 5.58485 7.9175 5.24376 8.27212 4.90776C8.62675 4.57176 8.80406 4.24594 8.80406 3.93031C8.80406 3.4314 8.4993 3.01903 7.88979 2.69322C7.29136 2.3674 6.41588 2.20449 5.26335 2.20449C5.18578 2.20449 5.09712 2.16885 4.99738 2.09758C4.90873 2.01613 4.8644 1.83794 4.8644 1.56303C4.8644 1.08449 5.18024 0.845215 5.81191 0.845215C6.79821 0.845215 7.62382 0.967398 8.28874 1.21176C8.96475 1.44594 9.47452 1.7514 9.81806 2.12813C10.1727 2.49467 10.35 2.88667 10.35 3.30412C10.35 3.85394 10.2226 4.34776 9.96767 4.78558C9.72387 5.21322 9.40803 5.60012 9.02016 5.94631C8.64337 6.28231 8.24996 6.59285 7.83992 6.87794C7.34123 7.21394 6.92565 7.51431 6.59319 7.77903C6.27182 8.03358 6.11113 8.24231 6.11113 8.40522C6.11113 8.45612 6.17208 8.48158 6.29398 8.48158C6.49346 8.48158 6.68739 8.46631 6.87579 8.43576C7.07526 8.39503 7.25812 8.37467 7.42435 8.37467C7.49084 8.37467 7.55179 8.39503 7.6072 8.43576C7.66261 8.47649 7.69031 8.56812 7.69031 8.71067C7.69031 8.96521 7.54625 9.20958 7.25812 9.44376C6.98106 9.66776 6.54887 9.77976 5.96152 9.77976ZM6.37709 12.5594C6.37709 12.7019 6.33277 12.8241 6.24411 12.9259C6.16654 13.0278 6.04463 13.099 5.8784 13.1398C5.80083 13.3129 5.67893 13.435 5.5127 13.5063C5.35755 13.5776 5.15253 13.6132 4.89764 13.6132C4.63168 13.6132 4.41558 13.5419 4.24935 13.3994C4.08312 13.267 4 13.0736 4 12.819C4 12.4321 4.1219 12.1318 4.36571 11.9179C4.60951 11.7041 4.8921 11.5972 5.21348 11.5972C5.55702 11.5972 5.83408 11.6634 6.04463 11.7958C6.26627 11.9281 6.37709 12.1827 6.37709 12.5594Z" fill="#FF991F"/>
</svg>
